<?xml version="1.0" encoding="UTF-8" standalone="no"?>
<svg
   width="308.7612359841165"
   height="304.915625"
   viewBox="0 0 106.00782394174519 104.68749999999999"
   version="1.1"
   id="svg23"
   xmlns="http://www.w3.org/2000/svg"
   xmlns:svg="http://www.w3.org/2000/svg">
  <defs id="SvgjsDefs2684" />
  <g
     id="SvgjsG2685"
     transform="matrix(0.9820592540669653,0,0,0.9820592540669653,-0.054560523427421584,0)"
     fill="#ff4a3f">
    <path
       d="M50 10c-22 0-40 18-40 40s18 40 40 40 40-18 40-40-18-40-40-40zm2.8 61.1c-3.5 1.7-7.8 2.2-11.5 1.3-3.6-0.9-6.6-3.3-8.1-6.5-0.8-1.7-1.3-3.7-1.4-5.6-0.1-2.8 0.7-5.5 2.3-7.6 1.3-1.7 3.2-2.8 5.2-3.2 1.9-0.4 3.9 0.1 5.5 1.2 1.5 1 2.5 2.6 2.9 4.4 0.1 0.5 0.7 0.7 1.2 0.3 0.6-0.4 0.6-1.2 0.3-1.8-1.1-2.3-2.8-4.3-4.9-5.5-2.1-1.2-4.6-1.8-7-1.3-2.7 0.5-5.1 2-6.9 4.2-1.8 2.3-2.7 5.1-2.7 8 0.1 2.5 0.9 5 2.4 7 2 2.8 5.2 4.7 8.7 5.2 3.5 0.5 7-0.3 10.1-2.3 1.9-1.2 3.5-2.9 4.6-4.9 0.1-0.3 0-0.7-0.3-0.8-0.4-0.1-0.7 0.1-0.8 0.4-1 2-2.7 3.7-4.6 4.9zm-2.8-24.1c-3.7 1.6-7.7 3.1-11.4 5.6-2.9 1.9-5.3 4.6-6.6 7.7-1.4 3.1-1.7 6.7-0.8 9.9 0.8 3.2 2.9 6 5.4 8 2.9 2.3 6.5 3.6 10.1 3.8 3.6 0.3 7.3-0.7 10.4-2.8 3.1-2.2 5.5-5.4 6.5-9 1.1-3.5 1.1-7.5-0.1-11-1-3.2-2.9-6.2-5.4-8.6-2.9-2.9-6.7-4.7-10.8-4.8z"
       id="pathS" />
  </g>
</svg>
